<svg width="1440" height="2556" viewBox="0 0 1440 2556" fill="none" xmlns="http://www.w3.org/2000/svg">
<g clip-path="url(#clip0_28002_516)">
<path d="M0 40C0 21.1438 0 11.7157 5.85786 5.85786C11.7157 0 21.1438 0 40 0H1400C1418.86 0 1428.28 0 1434.14 5.85786C1440 11.7157 1440 21.1438 1440 40V2516C1440 2534.86 1440 2544.28 1434.14 2550.14C1428.28 2556 1418.86 2556 1400 2556H40C21.1438 2556 11.7157 2556 5.85786 2550.14C0 2544.28 0 2534.86 0 2516V40Z" fill="url(#paint0_linear_28002_516)"/>
<mask id="mask0_28002_516" style="mask-type:alpha" maskUnits="userSpaceOnUse" x="-82" y="-352" width="1604" height="1604">
<circle cx="720" cy="450" r="802" fill="url(#paint1_radial_28002_516)"/>
</mask>
<g mask="url(#mask0_28002_516)">
<line x1="2.62268e-08" y1="-0.3" x2="1440" y2="-0.299874" stroke="white" stroke-opacity="0.09" stroke-width="0.6"/>
<line x1="2.62268e-08" y1="112.2" x2="1440" y2="112.2" stroke="white" stroke-opacity="0.09" stroke-width="0.6"/>
<line x1="2.62268e-08" y1="224.7" x2="1440" y2="224.7" stroke="white" stroke-opacity="0.09" stroke-width="0.6"/>
<line x1="2.62268e-08" y1="337.2" x2="1440" y2="337.2" stroke="white" stroke-opacity="0.09" stroke-width="0.6"/>
<line x1="2.62268e-08" y1="449.7" x2="1440" y2="449.7" stroke="white" stroke-opacity="0.09" stroke-width="0.6"/>
<line x1="2.62268e-08" y1="562.2" x2="1440" y2="562.2" stroke="white" stroke-opacity="0.09" stroke-width="0.6"/>
<line x1="2.62268e-08" y1="674.7" x2="1440" y2="674.7" stroke="white" stroke-opacity="0.09" stroke-width="0.6"/>
<line x1="2.62268e-08" y1="787.2" x2="1440" y2="787.2" stroke="white" stroke-opacity="0.09" stroke-width="0.6"/>
<line x1="2.62268e-08" y1="899.7" x2="1440" y2="899.7" stroke="white" stroke-opacity="0.09" stroke-width="0.6"/>
<line x1="-0.3" y1="900" x2="-0.299937" y2="-540" stroke="white" stroke-opacity="0.09" stroke-width="0.6"/>
<line x1="110.469" y1="900" x2="110.469" y2="-540" stroke="white" stroke-opacity="0.09" stroke-width="0.6"/>
<line x1="221.238" y1="900" x2="221.239" y2="-540" stroke="white" stroke-opacity="0.09" stroke-width="0.6"/>
<line x1="332.008" y1="900" x2="332.008" y2="-540" stroke="white" stroke-opacity="0.09" stroke-width="0.6"/>
<line x1="442.777" y1="900" x2="442.777" y2="-540" stroke="white" stroke-opacity="0.09" stroke-width="0.6"/>
<line x1="553.546" y1="900" x2="553.546" y2="-540" stroke="white" stroke-opacity="0.09" stroke-width="0.6"/>
<line x1="664.315" y1="900" x2="664.315" y2="-540" stroke="white" stroke-opacity="0.09" stroke-width="0.6"/>
<line x1="775.085" y1="900" x2="775.085" y2="-540" stroke="white" stroke-opacity="0.09" stroke-width="0.6"/>
<line x1="885.854" y1="900" x2="885.854" y2="-540" stroke="white" stroke-opacity="0.09" stroke-width="0.6"/>
<line x1="996.623" y1="900" x2="996.623" y2="-540" stroke="white" stroke-opacity="0.09" stroke-width="0.6"/>
<line x1="1107.39" y1="900" x2="1107.39" y2="-540" stroke="white" stroke-opacity="0.09" stroke-width="0.6"/>
<line x1="1218.16" y1="900" x2="1218.16" y2="-540" stroke="white" stroke-opacity="0.09" stroke-width="0.6"/>
<line x1="1328.93" y1="900" x2="1328.93" y2="-540" stroke="white" stroke-opacity="0.09" stroke-width="0.6"/>
<line x1="1439.7" y1="900" x2="1439.7" y2="-540" stroke="white" stroke-opacity="0.09" stroke-width="0.6"/>
<path d="M110.5 100.5L110.5 124.5" stroke="url(#paint2_linear_28002_516)"/>
<path d="M122.5 112.5L98.5 112.5" stroke="url(#paint3_linear_28002_516)"/>
<g opacity="0.47">
<rect x="332.5" y="113.5" width="109" height="110" fill="#272729" fill-opacity="0.34"/>
<rect x="332.5" y="113.5" width="109" height="110" fill="#272729" fill-opacity="0.34"/>
<rect x="332.5" y="113.5" width="109" height="110" fill="#272729" fill-opacity="0.34"/>
<rect x="332.5" y="113.5" width="109" height="110" fill="#272729" fill-opacity="0.34"/>
<rect x="332.5" y="113.5" width="109" height="110" stroke="#191B1F"/>
</g>
<g opacity="0.47">
<rect x="886.5" y="1.5" width="110" height="110" fill="#272729" fill-opacity="0.34"/>
<rect x="886.5" y="1.5" width="110" height="110" fill="#272729" fill-opacity="0.34"/>
<rect x="886.5" y="1.5" width="110" height="110" fill="#272729" fill-opacity="0.34"/>
<rect x="886.5" y="1.5" width="110" height="110" fill="#272729" fill-opacity="0.34"/>
<rect x="886.5" y="1.5" width="110" height="110" stroke="#191B1F"/>
</g>
<g opacity="0.47">
<rect x="1218.5" y="225.5" width="110" height="111" fill="#272729" fill-opacity="0.34"/>
<rect x="1218.5" y="225.5" width="110" height="111" fill="#272729" fill-opacity="0.34"/>
<rect x="1218.5" y="225.5" width="110" height="111" fill="#272729" fill-opacity="0.34"/>
<rect x="1218.5" y="225.5" width="110" height="111" fill="#272729" fill-opacity="0.34"/>
<rect x="1218.5" y="225.5" width="110" height="111" stroke="#191B1F"/>
</g>
<path d="M1218 101L1218 125" stroke="url(#paint4_linear_28002_516)"/>
<path d="M1230 113L1206 113" stroke="url(#paint5_linear_28002_516)"/>
</g>
</g>
<defs>
<linearGradient id="paint0_linear_28002_516" x1="720" y1="0" x2="720" y2="2556" gradientUnits="userSpaceOnUse">
<stop stop-color="#101216"/>
<stop offset="1" stop-color="#0F1014"/>
</linearGradient>
<radialGradient id="paint1_radial_28002_516" cx="0" cy="0" r="1" gradientUnits="userSpaceOnUse" gradientTransform="translate(720 294.5) rotate(90) scale(957.5)">
<stop stop-color="#D9D9D9"/>
<stop offset="1" stop-color="#D9D9D9" stop-opacity="0"/>
</radialGradient>
<linearGradient id="paint2_linear_28002_516" x1="110.5" y1="124.5" x2="110.5" y2="100.5" gradientUnits="userSpaceOnUse">
<stop stop-color="#C34124" stop-opacity="0"/>
<stop offset="0.50284" stop-color="#F99A85"/>
<stop offset="1" stop-color="#C34124" stop-opacity="0"/>
</linearGradient>
<linearGradient id="paint3_linear_28002_516" x1="98.5" y1="112.5" x2="122.5" y2="112.5" gradientUnits="userSpaceOnUse">
<stop stop-color="#C34124" stop-opacity="0"/>
<stop offset="0.50284" stop-color="#F99A85"/>
<stop offset="1" stop-color="#C34124" stop-opacity="0"/>
</linearGradient>
<linearGradient id="paint4_linear_28002_516" x1="1218" y1="125" x2="1218" y2="101" gradientUnits="userSpaceOnUse">
<stop stop-color="white" stop-opacity="0"/>
<stop offset="0.50284" stop-color="white"/>
<stop offset="1" stop-color="white" stop-opacity="0"/>
</linearGradient>
<linearGradient id="paint5_linear_28002_516" x1="1206" y1="113" x2="1230" y2="113" gradientUnits="userSpaceOnUse">
<stop stop-color="white" stop-opacity="0"/>
<stop offset="0.50284" stop-color="white"/>
<stop offset="1" stop-color="white" stop-opacity="0"/>
</linearGradient>
<clipPath id="clip0_28002_516">
<path d="M0 40C0 21.1438 0 11.7157 5.85786 5.85786C11.7157 0 21.1438 0 40 0H1400C1418.86 0 1428.28 0 1434.14 5.85786C1440 11.7157 1440 21.1438 1440 40V2516C1440 2534.86 1440 2544.28 1434.14 2550.14C1428.28 2556 1418.86 2556 1400 2556H40C21.1438 2556 11.7157 2556 5.85786 2550.14C0 2544.28 0 2534.86 0 2516V40Z" fill="white"/>
</clipPath>
</defs>
</svg>
